# xmcd
#
# Track frame offsets:
#	150
#	16065
#	33383
#	50319
#	67637
#	84504
#	101291
#	118848
#	135033
#	147896
#	170339
#	188484
#	202066
#	219321
#	237250
#	249125
#	265042
#	284350
#	298847
#
# Disc length: 4155 seconds
#
# Revision: 2
# Processed by: cddbd v1.5.2PL0 Copyright (c) Steve Scherf et al.
# Submitted via: audiograbber 1.83.01
#
DISCID=fa103913
DTITLE=Various Artist - Promo Only Country Radio March 2012
DYEAR=2012
DGENRE=Country
TTITLE0=Lisa Matassa - Wouldn't You Like To Know
TTITLE1=Thompson Square - Glass
TTITLE2=Zac Brown Band - No Hurry
TTITLE3=Marlee Scott - Train Wreck
TTITLE4=Dustin Lynch - Cowboys And Angels (Promo Only Clean Edit)
TTITLE5=Rascal Flatts - Banjo
TTITLE6=Darrell Scott - Hopkinsville
TTITLE7=Ira Dean - Something About A Sunday
TTITLE8=JT Hodges - Goodbyes Made You Mine
TTITLE9=Kevin Gordon - Gloryland
TTITLE10=Jason Cassidy - What If
TTITLE11=Clay Walker - Like We Never Said Goodbye (Promo Only Clean Edit)
TTITLE12=The Wood Brothers - Shoofly Pie
TTITLE13=Julie Ingram - Thank God (For Mom and Dad)
TTITLE14=Chris Young - You (Acoustive Version)
TTITLE15=Phil Vassar - Don't Miss Your Life
TTITLE16=Gretchen Peters - Hello Cruel World
TTITLE17=Steve Brook - One Fallen Soldier
TTITLE18=Cuff The Duke - Count On Me
EXTD=
EXTT0=
EXTT1=
EXTT2=
EXTT3=
EXTT4=
EXTT5=
EXTT6=
EXTT7=
EXTT8=
EXTT9=
EXTT10=
EXTT11=
EXTT12=
EXTT13=
EXTT14=
EXTT15=
EXTT16=
EXTT17=
EXTT18=
PLAYORDER=
